
<global>
amp_veltrack=0
ampeg_attack=0.01
ampeg_release=0.35
loop_mode=loop_continuous
loop_xfade_curve=EqP
</global>

<group>
group_label=PP
lpc_hicc1=42
lpc_locc1=0

<region>
hivel=127
key=G3
loop_end=175005
loop_start=75566
loop_xfade=16724
lovel=0
lpc=eNE1Q6uJtMNOfd1C2W57QgCiKEK7ybBAA4MDwvPxRcF7tslAon2dQMWIc8Ebdr5AV0zQPzscK8EYoIs+bnx3QZrmN7+EU+fAUe6ZQDQQWUBKUoHA/DYzwMKbgD6s958/
lpc_rms=-36.89
sample=Tuba_sustain_PP_G3.opus
</region>

<region>
hivel=127
key=G2
loop_end=178304
loop_start=76990
loop_xfade=17039
lovel=0
lpc=DC2qQ/S4JMSnQCdDJGsaQ7bejUJ55g3BOROAwnjOXsEtxgNB9mvgPxVaR0DzObBBpwmwwKbTx8HR5Y3AW8dUQAg1lkDzXHBAOnRBQTVlssDTggnA4825On3amsEXa35B
lpc_rms=-32.66
sample=Tuba_sustain_PP_G2.opus
</region>

<region>
hivel=127
key=G1
loop_end=177423
loop_start=76610
loop_xfade=16955
lovel=0
lpc=JPzLQ6vxFsQnc4RBmb9rQk2xZkJ4qXRCedXwQWG1mEENR+bAZjtJQDKeaMEX+JnApp5MwfabKsGcEY7BS27OwL89BEC/P4VAqgzBQerDR0BdnLbA/6zjwN+LUsBXncxA
lpc_rms=-32.47
sample=Tuba_sustain_PP_G1.opus
</region>

<region>
hivel=127
key=G#3
loop_end=178118
loop_start=76910
loop_xfade=17021
lovel=0
lpc=CmKPQ7VOC8SSsUBD7maYQrY4/UEEVLdAxxi1wbAcXsC0+OrA281swPNdncAs0YpB4px5wHTWjcEYvRS+eMBLQYoFkcDVc47AQW04QR5WxT8c3BG+KPw8vWRYqcFAXYJB
lpc_rms=-32.75
sample=Tuba_sustain_PP_G#3.opus
</region>

<region>
hivel=127
key=G#2
loop_end=177443
loop_start=76618
loop_xfade=16957
lovel=0
lpc=EAqbQ9rvEcRvv+9CkRMDQ31grEKPNe1A/tdTwlE/McFllRTAsBk3wefI60CkZ5FBKDp0wYIPs8GCWQo/2bTGQKtuuUCBj2dB319MQOMr6cDzCohAXnUPwFE/k8FUgUpB
lpc_rms=-33.67
sample=Tuba_sustain_PP_G#2.opus
</region>

<region>
hivel=127
key=G#1
loop_end=179137
loop_start=77350
loop_xfade=17119
lovel=0
lpc=tYRrQ507qsM0exPCZqF+QoOxcELI+UVCLoUAQYwdx8AIRH3BnMrGwDdF18ARhhPA8Ii/wE392cC3b2TAyJ+pQKgs/0DBUdxAi30bQP/BIsCIUsHA2+2YwMsfAEDHK0NA
lpc_rms=-38.88
sample=Tuba_sustain_PP_G#1.opus
</region>

<region>
hivel=127
key=F3
loop_end=182834
loop_start=78946
loop_xfade=17472
lovel=0
lpc=VpWCQ6ih5sPUGH5CA+a/Qr8NikKgUwlC+lTNwRVJ08GzUWLBrKYLwWIiL0Di27RBNPSsQEh7pME2yu7AkszhQGTwS8AKURE/fMQKQf8MOcAIhXDAj5hdQMdjzz+jsd2/
lpc_rms=-35.37
sample=Tuba_sustain_PP_F3.opus
</region>

<region>
hivel=127
key=F2
loop_end=177440
loop_start=76617
loop_xfade=16957
lovel=0
lpc=/maVQ7ZD7cNyYyPAo4O3QmDZtkJqml1ChcC+wHacg8FY1NfBBWRFwaqfdLxeSalAwTWdP2gDucCjDBfBFvCCv3vdmL50Q/RACbXiQD7sFT8WOb8/4/jLvg9IKsEFbLtA
lpc_rms=-36.08
sample=Tuba_sustain_PP_F2.opus
</region>

<region>
hivel=127
key=F1
loop_end=180775
loop_start=78057
loop_xfade=17275
lovel=0
lpc=6hhJQ6S8ncPwIdnA23KHQv/VZEJa6QZCpgGRvqDuLsEn1JLBh+TKwB/FX8C64Ka/pjckwOYxtb8PyLS/5gYbQEWXwUCmw01AXc+UQBhzxT/7vZnAQyu9wHHU3cBwjQhB
lpc_rms=-39.60
sample=Tuba_sustain_PP_F1.opus
</region>

<region>
hivel=127
key=F#3
loop_end=173244
loop_start=74805
loop_xfade=16556
lovel=0
lpc=aFQpQ+aRnsMD9oBC7nx8QmJoVEJCG4lBLwWxwX/XqcHz9k7BPv6HwK+FdMAnBEJBtua+QJuNMcAr2dW/9wBTQMEPeMBIDB6/TmF0QNzMPb951QbA7z2GQASnSMCZkWA+
lpc_rms=-38.12
sample=Tuba_sustain_PP_F#3.opus
</region>

<region>
hivel=127
key=F#2
loop_end=173577
loop_start=74949
loop_xfade=16587
lovel=0
lpc=8NejQyKyDMSDRiFCFhcJQ7qSx0LPFANCDZv2waoyp8F4HcLBjNVqwBjBc0DU+zRB4v2KwLLRHcHI/RLBMqqBwEjf0UBQuTBBqj4hQYAyEkDYIfbAFAmawLIsOcF6vDVB
lpc_rms=-34.60
sample=Tuba_sustain_PP_F#2.opus
</region>

<region>
hivel=127
key=F#1
loop_end=177412
loop_start=76605
loop_xfade=16954
lovel=0
lpc=+sG1Q2NjD8RXBY1BTRKiQnETuEKFWo5Ca7xPQbwnusCjYMXBPjWRwTiOdcHWumLAOYNTwdRI6L+jjKjADuwXQYBhIEE6wxNB5mMtQXGI0T69ht3A0jGAwf3SNMF1AIxB
lpc_rms=-33.51
sample=Tuba_sustain_PP_F#1.opus
</region>

<region>
hivel=127
key=E3
loop_end=178679
loop_start=77152
loop_xfade=17075
lovel=0
lpc=FQZ7Q4946MNPjbFC6n26QlA9mkIR6pJBUknzwcSM3cEEcx3BOLwcwMmii7/U7KBB0fmAPn+bsMFC3P3AMdVnQZhRAsAQhnBASjjvQBwih0AUUuzA/05mwMAqgcChCaJA
lpc_rms=-35.20
sample=Tuba_sustain_PP_E3.opus
</region>

<region>
hivel=127
key=E2
loop_end=179015
loop_start=77297
loop_xfade=17107
lovel=0
lpc=U96xQ0tDE8QCZoFBtQUJQ9fO5UL2+kJCRs6rweYSBsJbfwjCiSDtwPPq2kC2HkxB00mdP9ehrsCAeC7BWZ8lwN8B5D+MxO1AOEo7QR5yIsDGzaHAw68swOoKy8D17d9A
lpc_rms=-34.04
sample=Tuba_sustain_PP_E2.opus
</region>

<region>
hikey=E1
hivel=127
lokey=A#0
loop_end=180620
loop_start=77990
loop_xfade=17261
lovel=0
lpc=EqtbQwnajcO1oJHCWv0RQnIoUEKGx39Ctp3zQblT/0CVYGrB5ddnwa4xk8HvD2bBuOUMwaALMcCWKLU/XNL6QFFHJ0GYBwJBmqOiQFOgNMBr/qbAvKcWwdJwAcFeQENB
lpc_rms=-40.69
pitch_keycenter=E1
sample=Tuba_sustain_PP_E1.opus
</region>

<region>
hivel=127
key=d3
loop_end=169456
loop_start=73170
loop_xfade=16194
lovel=0
lpc=pT8PRPzScsQ1x9lCuEgbQ5KJIkOxdqBCFKGRwRIXEcJIdznCWsWHwf1mHcHJYfJBigKCQbmbmsETGc7BbB0OwEBgAkE/29xANviJQZkm78CLmIjAoPmSv14CWMHuE2ZB
lpc_rms=-28.64
sample=Tuba_sustain_PP_D3.opus
</region>

<region>
hivel=127
key=D2
loop_end=177235
loop_start=76529
loop_xfade=16937
lovel=0
lpc=eVOlQ6FpF8SfKQVDicjEQmOZt0JlRkRBEjzmwYLY48H7FgTByMFRwDVq90C2Zq9BXKMiwebMg8FoRPrAGvp7PwpFV7+8QEVBzuBaQQnaEcBH5hLAo64Iwd5zecHHynxB
lpc_rms=-32.44
sample=Tuba_sustain_PP_D2.opus
</region>

<region>
hivel=127
key=D#3
loop_end=179922
loop_start=77689
loop_xfade=17194
lovel=0
lpc=Bc2xQ3bVF8QNSshCBAl7QtSGskJWmFtCyESBwCykP8FOFXXBIrfbwR0+cMH3o5lBDcsiQaWGh8Fq35O/dC0fQZbH8r9tEwnBUnh9QbTfKD5e8zHBynMfPysq3sAM8hdB
lpc_rms=-32.22
sample=Tuba_sustain_PP_D#3.opus
</region>

<region>
hivel=127
key=D#2
loop_end=171509
loop_start=74056
loop_xfade=16390
lovel=0
lpc=imuzQ49mFcSf/6lBdx4FQ94N70IVC0hCpsnJwXYWyMGkbgvCnXc7wbRqAz/m/oBB5U/1P2FRGsFFA5HA0sIqwKESGEGn669A72NHPykeNsD7lBu/eDeKwJcX58C8vRVB
lpc_rms=-33.81
sample=Tuba_sustain_PP_D#2.opus
</region>

<region>
hikey=C5
hivel=127
lokey=C4
loop_end=174806
loop_start=75480
loop_xfade=16705
lovel=0
lpc=LgP2QpfmosPuTZhDCnUsw7HLCkOlCorCXhwFwg+OYEKymsbBvWe6QGLsJEGgR8PBkI2ZQWh3IcGgXyjB7EPTQDsTGEHQGsq/3HGcQPV3wMAy5gw/onhfQFJaOcHdEuJA
lpc_rms=-31.32
sample=Tuba_sustain_PP_C4.opus
</region>

<region>
hivel=127
key=C3
loop_end=179725
loop_start=77604
loop_xfade=17175
lovel=0
lpc=K/8iQ/YJkcOZqRxCfQyDQqBVKkJLynZBq249wbR0HsHXgDfBgUdGwGDNO8D3smhAPbdHvpqHu8D9Krg/iig/QJIvuj5JPQM+5yxnQB6dQEADgJLAiEX5v/6l6L79aec/
lpc_rms=-39.69
sample=Tuba_sustain_PP_C3.opus
</region>

<region>
hivel=127
key=C2
loop_end=186642
loop_start=80591
loop_xfade=17836
lovel=0
lpc=wQgiQ5wTZ8OkXqfB+4YCQkToCEI77hVCbXcgQaGqCEC50R7BOUO2wD8Ju8DXKeq/R04ywE30VsCHn5g+acZHvxZM+L9F90+/RlWWQKGiDkDjA38/dWERPyzMn7/BJ2u/
lpc_rms=-41.69
sample=Tuba_sustain_PP_C2.opus
</region>

<region>
hivel=127
key=C#3
loop_end=175127
loop_start=75618
loop_xfade=16736
lovel=0
lpc=+IYYRGm6hMS3OhxDffQlQ8BqIkOjT51CXTaPwXGkGcKR2BTCJIK3weHeKsHZy/NBsCC9QJDGX8HNapPBd3l+wKkcLMEaDmK+dt+pQemOUUEfh4TAtShwQE9SFEDdlBXB
lpc_rms=-27.78
sample=Tuba_sustain_PP_C#3.opus
</region>

<region>
hivel=127
key=C#2
loop_end=173801
loop_start=75046
loop_xfade=16609
lovel=0
lpc=IMWoQ9cqDsTfVZBC4VdrQjAr2EJyEGZCxB+0P/lf8cHILtfB8DeHwacpCkCFZ2xB6vyZwCOCO8FdbtnAo82SQM3qhj/wIq1Aa4GZQCnam0CytLO+i9EtwTJvjz86OEdA
lpc_rms=-32.47
sample=Tuba_sustain_PP_C#2.opus
</region>

<region>
hivel=127
key=B3
loop_end=176956
loop_start=76408
loop_xfade=16910
lovel=0
lpc=iswWQ/qmusOAW5FD7Lm/woyab0JbXo3AIP5cwijqCELc/aVAIiPiwRnssEHwNQS/8r1LwHjwI8EfuS9BIiXKwCBITcCH8+FApZktwGXQrEGoNqLBKXkJQNlSHsH2bhVB
lpc_rms=-32.48
sample=Tuba_sustain_PP_B3.opus
</region>

<region>
hivel=127
key=B2
loop_end=176828
loop_start=76353
loop_xfade=16898
lovel=0
lpc=2cSSQ0Ek8MP4SaRBJvm+QqYdqEIxKB5Cy4MuwSv2J8EJxZvBpYkQwU5rnMDIqiVA1rZLQCsvlcBK+kDArRWpwDG5gT/rRC9AVJmdQHm7oUDcOKO/koocv+PKssDMzUNA
lpc_rms=-35.38
sample=Tuba_sustain_PP_B2.opus
</region>

<region>
hivel=127
key=B1
loop_end=176581
loop_start=76246
loop_xfade=16875
lovel=0
lpc=mbdWQ2b0nsMexdpAfRfYQX7vHUIJHBtCVMk6QanH2UBVt7vAGeKWwF9918D5CT3AUNrDwCCF/MCFCQrAIjmrQLg4K7+uv0y/CSUSQeB3h0CVFjLAZUTtwCPtvMDhtf9A
lpc_rms=-38.33
sample=Tuba_sustain_PP_B1.opus
</region>

<region>
hivel=127
key=A3
loop_end=178397
loop_start=77030
loop_xfade=17048
lovel=0
lpc=xn2oQ2ApOMSg0rZDRsn8QecBo0LYSCPBNgmXwpkcnsGwT41BAGgQwWCqmUB63mdCbbAuQIDtqsInn8fAK1thQteXoD+Ej3PBz/AZQbG4pEDZcn3BfhiHQLHzncFzV5hB
lpc_rms=-29.07
sample=Tuba_sustain_PP_A3.opus
</region>

<region>
hivel=127
key=A2
loop_end=178449
loop_start=77053
loop_xfade=17053
lovel=0
lpc=btuvQ2JOIMQNcQxD2FbVQsbRjEI2RstBZviqwWvxaMFb6ULBouERwaVGlUAeWqVBus0RwblYf8F06sW+WIhRwAXiiMDr1wFBYBKpQM13k8CRi4/A3TvWQGmp+EDdR+HA
lpc_rms=-32.33
sample=Tuba_sustain_PP_A2.opus
</region>

<region>
hivel=127
key=A1
loop_end=177820
loop_start=76781
loop_xfade=16993
lovel=0
lpc=g299Q0AoucMd0iLCoIt0QlnpkEKbb4FCUt9fQQ1KwcCdwK/B2VhUwbX9GMGo2dbAZ9nzwN4pesBvRwU/zdkJQHN3IUH5Ic1AQCBJQElac8A05oW+YXijwPq5JcAhb35A
lpc_rms=-37.95
sample=Tuba_sustain_PP_A1.opus
</region>

<region>
hivel=127
key=A#3
loop_end=176550
loop_start=76233
loop_xfade=16871
lovel=0
lpc=sAGkQ4WlT8S1tiZEPsuNw5tUXUMV9kLC4mGAwub6+0FOzarBLtEEwqanC0IhGdNBDGZiwUb6lcJBVahC0ZWIwVdH1sF2XA1CzAyBwAKeB0Hy0fvBDEmiQUuqm8GrlE1B
lpc_rms=-24.60
sample=Tuba_sustain_PP_A#3.opus
</region>

<region>
hivel=127
key=A#2
loop_end=170840
loop_start=73767
loop_xfade=16326
lovel=0
lpc=0iqKQ/oDBcQiryhDPESGQkmOX0KquqBARYQYwjnQp8Cr2rhAv3oawKwogkDdF4tBCDEnwQ+x1MGTgMtAOBYvQafCmsD8hqs/lqhOP5ZWksC5Mu2+DGKZQKJWp0AMNpnA
lpc_rms=-33.15
sample=Tuba_sustain_PP_A#2.opus
</region>

<region>
hivel=127
key=A#1
loop_end=178680
loop_start=77153
loop_xfade=17075
lovel=0
lpc=SSeNQ/uy4MPi+ORAa26zQhYUj0IIIjdC83EFwRCsgsHYfGvBpRyFQCXKh0DPsN3Az/JRwVTtV8Hnho6+H/8uQe/3SkHZRBFA8t97PU9MksAG8M7Av3qawI/0qkDLgBxA
lpc_rms=-36.37
sample=Tuba_sustain_PP_A#1.opus
</region>
</group>

<group>
group_label=MF
lpc_hicc1=84
lpc_locc1=43

<region>
hivel=127
key=G3
loop_end=181324
loop_start=78294
loop_xfade=17328
lovel=0
lpc=aYZvQ3+ZG8TvO+dDqRa/wsD990I5m4TCpqOZwgmCtEFCNZTBVn7xQV/blUGp89TB8P+NwLASD0JSpgY/oa0Twjy0j8HdkwtCYY+IQYTNjcFHcj/B49nKQf8g0cE6EylB
lpc_rms=-28.92
sample=Tuba_sustain_MF_G3.opus
</region>

<region>
hivel=127
key=G2
loop_end=178253
loop_start=76968
loop_xfade=17034
lovel=0
lpc=OdqEQzSsE8RE45tDlxyGweQ4tkJmTzRByqiewmb0WMBmn2lBluR9wakBGEECA6JBLlagwSIB0cCeBNRAUf4rwYz0GMCzN6RBaAFvQT6okcHRC5u/eAU0QMa+U8Gy+RZB
lpc_rms=-31.22
sample=Tuba_sustain_MF_G2.opus
</region>

<region>
hivel=127
key=G1
loop_end=169257
loop_start=73084
loop_xfade=16175
lovel=0
lpc=HTPdQ7jKg8Q7ayFEUG3fwZPPx0I8JofC2ueQwdTGUcGUGh9Bwl7swZTrQsFfhFVBL3DPP89Dgz8wpw3BYPdEQdDoY0H1shJCRoTKwUqekMGaytHBSYR/QRZkdEBH85JA
lpc_rms=-24.65
sample=Tuba_sustain_MF_G1.opus
</region>

<region>
hivel=127
key=G#3
loop_end=180167
loop_start=77794
loop_xfade=17217
lovel=0
lpc=CcEMQ1+KqMO2b3ZDJjftwuu2C0PYbyXCJbhEwviTEkJf1bjBj8GDwHiGRUEfH/fA5O9uv6RYZEFxCoY+7TymwbXLnEATwKFB+1g5wMJoT8H7jrY/RRfbP08od78kI9c/
lpc_rms=-32.75
sample=Tuba_sustain_MF_G#3.opus
</region>

<region>
hivel=127
key=G#2
loop_end=180587
loop_start=77976
loop_xfade=17257
lovel=0
lpc=RthYQ5wN5sOWT2RDf2qewYBKiEKduSxBKpwbwubZ/EBkfKnBHJ3Kv3abvUGuPKjAbECcwVLfuz86hb5A9cCswLDosD9pqJhBhm72P0t6TMFbXzNAKHRYQIGKt8FUzH9B
lpc_rms=-33.38
sample=Tuba_sustain_MF_G#2.opus
</region>

<region>
hivel=127
key=G#1
loop_end=181015
loop_start=78161
loop_xfade=17298
lovel=0
lpc=uHdsQ9X5AcSTvolDtii9v6bnZUL4YsbBTVC8wTPkzkAOwYq/OBqTwR2OgEHSG1jA9GDlPds/Jb+OvQHArrTtv1+tRb+wPxhB9ZU8QQ1pa8CAl03B8hirPgefTMEY9llB
lpc_rms=-31.28
sample=Tuba_sustain_MF_G#1.opus
</region>

<region>
hivel=127
key=F3
loop_end=179911
loop_start=77684
loop_xfade=17193
lovel=0
lpc=xK+vQ7UCRcTSJvpDDY9JwyK3VUN8sblA2XC7wojLP0KIh6LBfQvjwSUe4UGFOJ3AllE3whxq+EGZl6hBHfZCwg1sO0HQEP9BWQYVwWC6j0GlZ5fAatnGwKbvAsKbmr5B
lpc_rms=-25.54
sample=Tuba_sustain_MF_F3.opus
</region>

<region>
hivel=127
key=F2
loop_end=180604
loop_start=77983
loop_xfade=17259
lovel=0
lpc=EkOvQznCQsSzM8RDAwcsQncNXEKLaBXBgQU+wmw2hb9jJde/PTkAwdv7hUEDLik/WaSywReKTsES/mpBDNKoQLLhuj/PfCZBAwmoQAd7SsDVuOrAYRL3wBUey8DTPjJB
lpc_rms=-29.53
sample=Tuba_sustain_MF_F2.opus
</region>

<region>
hivel=127
key=F1
loop_end=180056
loop_start=77747
loop_xfade=17207
lovel=0
lpc=/+xmQwb08cMHc0dDJO1CQkhhT0JHfdvA7Q7SwYpbfMH8kg7AC5o5PzukCz1MsKVA3FAxvvKFMcAg/gLB94wBvxNP+0AgmzdBT4GgQMURosAmSUnBndY1wH1zb7/FEuNA
lpc_rms=-33.32
sample=Tuba_sustain_MF_F1.opus
</region>

<region>
hivel=127
key=F#3
loop_end=172173
loop_start=74343
loop_xfade=16453
lovel=0
lpc=RWphQ4xVDMT0nNZD8n9Cw+tmVUMKjZvCxSPRwdrQH0LmJ8/CfB1ZQFjcQ0IfAvZAd1xYQcBvIUEsTcXBSSS9wSHGGkEbJIZAgMKEQeQKRcGYiWBBXr7bwLNKg8GXMjZB
lpc_rms=-28.62
sample=Tuba_sustain_MF_F#3.opus
</region>

<region>
hivel=127
key=F#2
loop_end=178706
loop_start=77164
loop_xfade=17078
lovel=0
lpc=87u8Q+1qUsRolNNDaKgjQt/Nt0LwktPBIiF6wvpnCcDRYpnBYyjgv3aeDkJf/CC/VEmQwVadW76fNCu/xd6CwW6zyEB2jpNBWLNlQbS1br4S65HBAMyWQEKtqcE8aIRB
lpc_rms=-28.64
sample=Tuba_sustain_MF_F#2.opus
</region>

<region>
hivel=127
key=F#1
loop_end=179913
loop_start=77685
loop_xfade=17193
lovel=0
lpc=D7imQxJuNMSk86JDWd33QRQ5DEOCDzrC53PuwTkZNMLt8BpBLdG6wSJM+0C1J8JBX1jBwGo6hkB/P67Bfo+NQUgHUb8ivhJB8+XPQfaI7sEUCTrB7xwiwC8nSr8FRCpB
lpc_rms=-27.54
sample=Tuba_sustain_MF_F#1.opus
</region>

<region>
hivel=127
key=E3
loop_end=180248
loop_start=77830
loop_xfade=17225
lovel=0
lpc=ABycQ+f8LMRxmN9DPK5xw2lvdENZPqFBT+iIwktW3EHerG/CtxJ2wdOnFkJqQSlAyrgZwpcSmUBvlPhA/AAFwenKiUEzJaVBCoR0QWXX2sFCzkXB9ufSPqe62L/r2/1A
lpc_rms=-26.98
sample=Tuba_sustain_MF_E3.opus
</region>

<region>
hivel=127
key=E2
loop_end=180316
loop_start=77859
loop_xfade=17231
lovel=0
lpc=BuewQ6/pO8QdF6JDoQ+IQnUFjUIfXxnBJeolwp4K378VG77Ah92ywbjd4kALdsBB0ESZwD3yisG6OIC+SwTfwMsZpr7BFJFBrlqBQZK2IcHOTQPBLA88wIxe3sB5JA1B
lpc_rms=-30.00
sample=Tuba_sustain_MF_E2.opus
</region>

<region>
hikey=E1
hivel=127
lokey=A#0
loop_end=176876
loop_start=76374
loop_xfade=16903
lovel=0
lpc=K85+Q9dsBcTe31JD2vSBQgT2K0ICpxtBvCaqwVtPPcFi34TB3irvwLPcCsD/9O3ASALwQGvWpECW6Ly/n3rYQHQczkDJoQVBd4n0P3DVP8HTNqTBP51PQIHvW0H+KOm/
lpc_rms=-33.31
pitch_keycenter=E1
sample=Tuba_sustain_MF_E1.opus
</region>

<region>
hivel=127
key=D3
loop_end=172407
loop_start=74444
loop_xfade=16476
lovel=0
lpc=B/EXRHe3sMScf2hEIterwy43r0OuJ5VC1AEtw6Hyb8LteRzBlQNXQmScbEGB9fXBQGEkwh5vqkFAW05C/OsjwmVgTMJ0p2RCeHGEQZYUJEGZ1+5AUEYlQQEPz8JKsHdC
lpc_rms=-21.76
sample=Tuba_sustain_MF_D3.opus
</region>

<region>
hivel=127
key=D2
loop_end=172220
loop_start=74363
loop_xfade=16458
lovel=0
lpc=scbwQ///kMSWWz9E5y3XwrB5DENSsaDCwEWDwq1FEUL8a8jAO4JfwdFPikFkdj6+ULedwZmBQUGmfsxAGvknwTHv68BYnIpB9BTLwLb10EF/Lg7C9zSPQQDuu8Gk6IJB
lpc_rms=-24.10
sample=Tuba_sustain_MF_D2.opus
</region>

<region>
hivel=127
key=D#3
loop_end=180891
loop_start=78107
loop_xfade=17286
lovel=0
lpc=PIG2Q1WBScTnIP5D/Vc5w4MLAENal4tCnl01wmpxfEC3BwjC8+oWwbPTxEE4P57BsDo5wvIF/EE8gK1B6iqmwWHGLsEAHTRClK6ZQOb0ksGcozpBcCzMwDBNLcIfYf9B
lpc_rms=-26.02
sample=Tuba_sustain_MF_D#3.opus
</region>

<region>
hivel=127
key=D#2
loop_end=174044
loop_start=75151
loop_xfade=16632
lovel=0
lpc=NSulQ2EWMcR4HKRDlT0QQmVwg0IFk2XA4+biwU/coMB9uGrBeBNAwfh8n0Hxk3E/3/GPwa8EOEDXnD1A2TUjwcroVcCut31BHkN8QY5F0z+AISrB9wqpwLJUZMG4AFlB
lpc_rms=-29.43
sample=Tuba_sustain_MF_D#2.opus
</region>

<region>
hikey=C5
hivel=127
lokey=C4
loop_end=163097
loop_start=70424
loop_xfade=15586
lovel=0
lpc=WKGPQ1jXM8TWOSJEp+zUw/hNl0PG8pHBQazVwmyYiUK1IR7Coo8YwpUiRkIspi7BcWQHQUMkQUGgiJzBuOuRwVT44UHXj1rBWb9iv+baQ0GTZM3AO6tbQK9fB8Hv+6hA
lpc_rms=-23.80
sample=Tuba_sustain_MF_C4.opus
</region>

<region>
hivel=127
key=C3
loop_end=179470
loop_start=77494
loop_xfade=17151
lovel=0
lpc=phufQ8QtOsRS6OdDf4XTwmX5H0NfeZHATGTAwjfKfkHOlK7BY7XuwDfWIkKsFYLBMv0mwRmeqEEcsiHBqrYQwlTpdEEdVwRCIGrmQKCbiMEKpKzAxig0QQdx1sFJxYNB
lpc_rms=-28.25
sample=Tuba_sustain_MF_C3.opus
</region>

<region>
hivel=127
key=C2
loop_end=181010
loop_start=78158
loop_xfade=17298
lovel=0
lpc=BhxIQy/F88NVnaJDXqMQwvScOkK198DB/YcCwvEpK0HqsTo/jfuxwePvbUGbLFtB3fkqwVSftD9Sv9s/wEZgwANKAMHS7BZBh85CQdZKJr+1o4vB4H3SQEI5pMBI/KJA
lpc_rms=-31.69
sample=Tuba_sustain_MF_C2.opus
</region>

<region>
hivel=127
key=C#3
loop_end=180395
loop_start=77893
loop_xfade=17239
lovel=0
lpc=cSoORAKBl8QCkxVEIYnTwt+LiUOuVodCit5JwyUO9MFzwpJCxrhOwt/qfUHk4nlCiyw4wpA6eMJDI5lBp+kmQggeEML8ALNAMMofQg9jfMDcs+jB9pmfQf0BJcH2DOM/
lpc_rms=-24.20
sample=Tuba_sustain_MF_C#3.opus
</region>

<region>
hivel=127
key=C#2
loop_end=177532
loop_start=76657
loop_xfade=16965
lovel=0
lpc=edDuQw7plsQ2Q1JEs2H1wsZBV0NHLRjDVifQwkxJ90GPBivAJCfYQB0cmEEQ169BKj2qwet1bcHV8I9BHOyYvwolGsIud6lB6DRuQi9Y1cF4DRfChPDxQXsgBsJyQ6tB
lpc_rms=-23.62
sample=Tuba_sustain_MF_C#2.opus
</region>

<region>
hivel=127
key=B3
loop_end=178050
loop_start=76881
loop_xfade=17015
lovel=0
lpc=bqlRQ1RYBMQTN+BDi415w7BSVkO6omDC9XFnwurHC0I7SR/BpRsLwr6yFELJyjq+riELwVTWakHZrbfBC89HwWcr30HR5gpBHcd1wJG7LsE467w/NvHuQKy8sMFXomlB
lpc_rms=-26.97
sample=Tuba_sustain_MF_B3.opus
</region>

<region>
hivel=127
key=B2
loop_end=181644
loop_start=78433
loop_xfade=17358
lovel=0
lpc=06qSQ+ZOJMQezLBDZPOxQCVTk0JgDQzC3elYwloae0F6TuJAGxKIQJ83mUFKC8q/VJIswiDsfr/LhG9BZwsQwfqZLbyTmalBTsEYQc4PN8H4GdzAFmxaQQydvcHRMTtB
lpc_rms=-29.93
sample=Tuba_sustain_MF_B2.opus
</region>

<region>
hivel=127
key=B1
loop_end=178707
loop_start=77164
loop_xfade=17078
lovel=0
lpc=tVV7Q/wjIcQPKNtDB0DyQSVRY8EpSm/Cgs8KwsOfuUEWPo1BYK6yQGUXp8EgHd++yfu3QKOhY0B/CAJAvMRHwOYnMcDWS6VAB18WQYwdMcFhtyjBbCLTQNDRC0FZC6zA
lpc_rms=-30.68
sample=Tuba_sustain_MF_B1.opus
</region>

<region>
hivel=127
key=A3
loop_end=178463
loop_start=77059
loop_xfade=17054
lovel=0
lpc=hTPCQ8MyZMT3OihE5CGzwwo4qkNoyVBBjY85w8PUPUIwajLBjGobwkHTK0K6YAJCBQyGwXtE+cBsqovBAAcAwtMFkUFFAVZCc9H+vxeVc8EU1RFA9kWhwVVOk8EBCMxB
lpc_rms=-21.90
sample=Tuba_sustain_MF_A3.opus
</region>

<region>
hivel=127
key=A2
loop_end=179479
loop_start=77498
loop_xfade=17151
lovel=0
lpc=A6PKQz1JaMRjFghE0z2Gwh/xHEOPUj7CtRGYwnZSpkFi5oDBRz7qwX6mikLMpJ1ABZQywswx77+vK7BA92UCwqIhm0FCUh1CM+H/QGkPn8HJQTzBYSs5QfwgCcJi+slB
lpc_rms=-26.18
sample=Tuba_sustain_MF_A2.opus
</region>

<region>
hivel=127
key=A1
loop_end=173744
loop_start=75021
loop_xfade=16603
lovel=0
lpc=oL+XQ3YuLsTd5c1DVoA6wnoDvULboAXC88qpwTtY4D8NOxPBzMc/wc+3BkGgyTnAqw1qwal6NEGWMvY/dRe8wIPgS0FxYRZBinNTQB87Z8EPZ7nAbK0EQOPnUMC2iLRA
lpc_rms=-28.04
sample=Tuba_sustain_MF_A1.opus
</region>

<region>
hivel=127
key=A#3
loop_end=178768
loop_start=77191
loop_xfade=17083
lovel=0
lpc=Bj+6Q4WnYcSO+UFEV7YPxBv/BESSLR7DBmRBwitTY0Kjj2bCAmTFwWmQJUL6x9/BLANSQZLtp0C11YNBVImcwjeOgUKiEgVBxGq0wPvPgEFVeQzCACgHQtWfVcJ95PhB
lpc_rms=-20.73
sample=Tuba_sustain_MF_A#3.opus
</region>

<region>
hivel=127
key=A#2
loop_end=171537
loop_start=74068
loop_xfade=16392
lovel=0
lpc=7giOQ/D8JMQAQNJDEwS0wrQQ7kL7qR7CAVNGwgoUBkLL1aXBWm29wb/gGEKXY+tAB7ufwUpth0BgvtlA5o/UwXn/uUAbGY5AaxUsQT0o+8Dgnim+3BtAQNkDVEE1pUrB
lpc_rms=-28.08
sample=Tuba_sustain_MF_A#2.opus
</region>

<region>
hivel=127
key=A#1
loop_end=178873
loop_start=77236
loop_xfade=17094
lovel=0
lpc=Xe2XQ1/ML8RvsdRDH0MQwp6sjkItwkDCysyQwe1xC0Km/LfBS+uowb6EeUFlrgpB4VVZwUoY8r8x2yHAhErSwNh0nUByzBpBPcqbQc5jkEDB6ADCj5hBQM5gC79ttbpA
lpc_rms=-28.71
sample=Tuba_sustain_MF_A#1.opus
</region>
</group>

<group>
group_label=FF
lpc_hicc1=127
lpc_locc1=85

<region>
hivel=127
key=G3
loop_end=174133
loop_start=75189
loop_xfade=16641
lovel=0
lpc=veorQ0w4D8TDMTZE3ev4w1XYwENBttHDwCSEQ+tHm8KFt29CdQR9wu0Xs0E35k9Bd4s8wirIP0KSQRnByl7WQNvPL8J2cSNCygF7PilmisChR+rBFosuQrVRusGbzHJA
lpc_rms=-22.55
sample=Tuba_sustain_FF_G3.opus
</region>

<region>
hivel=127
key=G2
loop_end=167853
loop_start=72477
loop_xfade=16040
lovel=0
lpc=9idWQxicJsRDgTREwayowwqdPUMJtzTDEm/dwKN4yEIrIRHAj6RowtgGRUAa7W9C9hsawjRPNcHVBLBB3bTSwSixdEFGp9hB60fcwaxResGnQKVB1oMFQZQehcGEdLNA
lpc_rms=-26.31
sample=Tuba_sustain_FF_G2.opus
</region>

<region>
hivel=127
key=G1
loop_end=143415
loop_start=61925
loop_xfade=13705
lovel=0
lpc=ox2BQwlbVsR0O4BExSD6w46GFkPu5D3DZTL2Qv7DdsHmWSxCkhUCwt9m58FhfcBBTF2nQPJ/jr/sz4HBmMs4QYGMkEB5qY7AqhfvQBDlkUBLMj/CKriCQshgHMKu8RtB
lpc_rms=-22.60
sample=Tuba_sustain_FF_G1.opus
</region>

<region>
hivel=127
key=G#3
loop_end=177858
loop_start=76797
loop_xfade=16997
lovel=0
lpc=CaEtQ+7Q6cNGFcpDyyo3w/uBQUOjxfDCwvCnwdpXCUI7sQDCX97hP6ukEkGt5l5BgNcbQQVhY8BX92/BPDc7wdD91UBN11ZBTm2HPmVGf7zVprrAkeQLwQSvK0GF8eq/
lpc_rms=-28.49
sample=Tuba_sustain_FF_G#3.opus
</region>

<region>
hivel=127
key=G#2
loop_end=161254
loop_start=69628
loop_xfade=15410
lovel=0
lpc=KtspQ6G28cPRdO9DVGh2wxJSPEMFfQrD/3ZYQaPZHkIWF/rB06FtwcQKw0F5T71BNLuiwaVhOMADch4+Xw3RwTxBrEEAhvdBBZyzwdzCj8FoaPtAQO2KQXr/gMH1nYxA
lpc_rms=-28.43
sample=Tuba_sustain_FF_G#2.opus
</region>

<region>
hivel=127
key=G#1
loop_end=135672
loop_start=58582
loop_xfade=12965
lovel=0
lpc=jZgKQ43U+MNnJjZEyMMLxO24gEO69OjCj/C8QgclkMJWQepBEoEIQBpxlcD/6rLAG0EbQSwtpsAyaEbAHXBpv+yGhUGaZZ/BaPQlQfmU3UDW4QLCBqgzQtT448HLT95A
lpc_rms=-24.84
sample=Tuba_sustain_FF_G#1.opus
</region>

<region>
hivel=127
key=F3
loop_end=178719
loop_start=77169
loop_xfade=17079
lovel=0
lpc=Bw+MQ5E2ScR2I0xEaJ/tw9bwyUP2e4nDJuXyQRp27kEuQ1LBA54uwey5VUIQpKzBZjM/wvkMH0I5ZCrBRCIlwdQe/UEuZoTAS0/ywFc9csGlwo9BGtn7v5VMbcFRgB5B
lpc_rms=-21.51
sample=Tuba_sustain_FF_F3.opus
</region>

<region>
hivel=127
key=F2
loop_end=179652
loop_start=77572
loop_xfade=17168
lovel=0
lpc=69BdQy/cJ8THwTdEtOXJwyTWh0M/M37DYCrCQpXsRkF3y2ZB+oc2wj82n0E6LwRCKttpwtstF0K2TqY/dj4Fwr6DvkGIAZxBJGTTwVNDxr8K9CW/MYDtQSGGBMJYTjRB
lpc_rms=-24.28
sample=Tuba_sustain_FF_F2.opus
</region>

<region>
hivel=127
key=F1
loop_end=141948
loop_start=61292
loop_xfade=13565
lovel=0
lpc=TpgQQ5uB+MNFiyFE9j+zw20LakLhyNrB/flUQjHNLMDYRQ7C1wrHQU0T2cC8roI+QwGtQGzVQMEFyqhABGQkQN5vXUAIubXAUuOWQBz8GrzjnrjBKHsmQkNx7MHmqflA
lpc_rms=-28.41
sample=Tuba_sustain_FF_F1.opus
</region>

<region>
hivel=127
key=F#3
loop_end=178122
loop_start=76912
loop_xfade=17022
lovel=0
lpc=2IAWQzmo98OQ2BVEw6yow41UP0PSk17DA2UJQ6NxkMHY4UJB86vjwZNOCkEWkYVBZR4QwiCYBUKZpKlA78EowiCIv0G1AplB1V9kwS5FNcGf7wXBDmMzQhWnIsJMcUtB
lpc_rms=-25.77
sample=Tuba_sustain_FF_F#3.opus
</region>

<region>
hivel=127
key=F#2
loop_end=168355
loop_start=72694
loop_xfade=16088
lovel=0
lpc=KchIQ4XtFsTn7SBEGY6dw7xKMEOm2ijDIflLQmQOQULf/9bBNg8NwpHau0Ea2DVCOc5rwt/ZeUGkhONBJ4FowgU47UFHriNCJ1ItwueVMsGpeqRBxuROQX/00cEjZypB
lpc_rms=-26.63
sample=Tuba_sustain_FF_F#2.opus
</region>

<region>
hivel=127
key=F#1
loop_end=141776
loop_start=61218
loop_xfade=13548
lovel=0
lpc=JoBhQyfqP8R2+XFESYUAxFTk3EKRXarCHlaXQpTz9UBwjx7CogRGQuYJbMLD/TJC2EaIwc0WPcHe2eZBjXf8wSrnvUFillnA0q3twMiHZkE/fiLCXo1iQtYvFcL/nhxB
lpc_rms=-24.86
sample=Tuba_sustain_FF_F#1.opus
</region>

<region>
hivel=127
key=E3
loop_end=181601
loop_start=78414
loop_xfade=17354
lovel=0
lpc=H25oQzOKKsRbVjJEaW7Hw7CFi0P2xDbDb58uQsisJ0F9uGbCKF3mQYCi0UH8XjK/hzFbPx4uCUAwrBPC0DTrQFJDukEGsZbBoLKkQfxO60ChofvBaFu3QackhsFP/v5A
lpc_rms=-24.19
sample=Tuba_sustain_FF_E3.opus
</region>

<region>
hivel=127
key=E2
loop_end=169314
loop_start=73108
loop_xfade=16180
lovel=0
lpc=toKAQxSLQ8S6L1lEvaD0w1ztlkMgcGHDgmw7QaJNx0J3y1PBGKhWwqRmJED0hFFCAkT+wV0Z68DLNnVBmg2Bwcx2FUBQzOtB4I8wwRkjCcJqolBBpvQrQjTaQsIUd4FB
lpc_rms=-23.45
sample=Tuba_sustain_FF_E2.opus
</region>

<region>
hikey=E1
hivel=127
lokey=A#0
loop_end=135596
loop_start=58549
loop_xfade=12958
lovel=0
lpc=PoNCQ8znH8Q3WjZEhhFww3nJu8K9ACDBh76LQhjn9EHTmh3CZ2+YwUXH+0BhjcZBRbJQwTqphsEOTMNBs+cXwYjz0r/f2dlApJZlwAlHCMGwTaBAbYM8QSDNasFyUp1A
lpc_rms=-28.23
pitch_keycenter=E1
sample=Tuba_sustain_FF_E1.opus
</region>

<region>
hivel=127
key=D3
loop_end=168559
loop_start=72782
loop_xfade=16108
lovel=0
lpc=rRgNRJgNwMQKD7NEmqNQxMo8NUSIcYXDgckPw5zUpUIrq9DCbIZoQg6moUI6IXPCnsHewY6Fg0KO64PCplcBwuPttkLdQIRBuVCBwd9VxcFACdXBGQSHQS9O3T+hEJNA
lpc_rms=-18.99
sample=Tuba_sustain_FF_D3.opus
</region>

<region>
hivel=127
key=D2
loop_end=172749
loop_start=74592
loop_xfade=16508
lovel=0
lpc=mWHNQ7IqpMQQALxEsD42xKOxhEN/5HnDruWUQUCvNEOhI+TArQQdw+8EqkHYCAZD+wmSwvIwasJzbr1CVCRFwpPnCcLHeKdCRh+swTSPVsJXWQxCFyVVQbXxusG0dQ1B
lpc_rms=-20.37
sample=Tuba_sustain_FF_D2.opus
</region>

<region>
hivel=127
key=D#3
loop_end=179040
loop_start=77308
loop_xfade=17109
lovel=0
lpc=hZnSQzPBhsQVxVZEOR+5wytTzkOS0ULD1VgswzmMIEOZ/aXBbEPEwdB13UGG/RzCKbEoQd412MA8BlFBytcMwDwjEMFgU/hB6bt7PmxbuMEUegBBdk22QImKpcFGC0JB
lpc_rms=-22.95
sample=Tuba_sustain_FF_D#3.opus
</region>

<region>
hivel=127
key=D#2
loop_end=172366
loop_start=74426
loop_xfade=16472
lovel=0
lpc=BG1yQ4ISQcSZc15ETrftw+Xyg0P7IH7D+V5MQmHS/0Jv9W3C/t1owmWILUK9GydCntBxwjprB0FbCvJBAfwGwmcmJkCn3CdCyQ7TwS+J08Gqc6NB4OTNQWaPCcLwFTdB
lpc_rms=-23.99
sample=Tuba_sustain_FF_D#2.opus
</region>

<region>
hikey=C5
hivel=127
lokey=C4
loop_end=176891
loop_start=76380
loop_xfade=16904
lovel=0
lpc=65aSQ4dyUcQ8DV1ELrcXxGFgAEQBVojDH4/bQBEGQkLOqZ/CVrT5QZ8DjkIGr8vCt3awQul0BsJ9dADBuY+ewTTprkH61JlB3FHbwH2LyMCmHqjBAXP6Qcayx8GMkzFB
lpc_rms=-18.78
sample=Tuba_sustain_FF_C4.opus
</region>

<region>
hivel=127
key=C3
loop_end=168499
loop_start=72756
loop_xfade=16102
lovel=0
lpc=EktdQzeZGsSIBw1EA2Vuw4tGSEMUJP/CbhNmwidqp0IvHdTBsNSlwS20AUBAMQFChoYIwAjpdcF746lA6vgxwXcj68CdURRCSS19Pywa9cHK82fBQOMOQt0rXMGiDcc/
lpc_rms=-27.85
sample=Tuba_sustain_FF_C3.opus
</region>

<region>
hivel=127
key=C2
loop_end=169453
loop_start=73168
loop_xfade=16193
lovel=0
lpc=ObQTQ8gH+cNDTiRE6YTWw8mKKUPKb8HCEsypQggoMsJoVIQ/44NVQaFDOMAvkTRAeiKTwfpEiUGzMwJBfuLbweE0M0EBIc1B0QcIwkDiWUEswWzAqh0IQTQF/sBT4wpA
lpc_rms=-25.79
sample=Tuba_sustain_FF_C2.opus
</region>

<region>
hivel=127
key=C#3
loop_end=167351
loop_start=72261
loop_xfade=15992
lovel=0
lpc=NrAKREd5w8QKQLhEhgNDxNbTQEQF5fbDwPz9wNntO0I2BdDCH2/YQq69DEGVO29Bu5oKwiZsnUC0pz5BDoJYwhbPKkKdCdZBtSU0QTx+QMKGlD/CYzmxQhZeBMK3TiRA
lpc_rms=-18.15
sample=Tuba_sustain_FF_C#3.opus
</region>

<region>
hivel=127
key=C#2
loop_end=168626
loop_start=72811
loop_xfade=16114
lovel=0
lpc=rG6gQwiMbcTL+WxEwXO3w9baQEMvo1zDGWCvQd2rjkKOYK1BBoeRwnhz80F+BY1BrZEwwQ9pLsEgyJhBmc3JwerVesDCR0JCf1e2wa69lsEsJQTBBEw7QmWQIsJ8eVNB
lpc_rms=-22.13
sample=Tuba_sustain_FF_C#2.opus
</region>

<region>
hivel=127
key=B3
loop_end=176451
loop_start=76190
loop_xfade=16862
lovel=0
lpc=/EUVQ7xE5sPzlQFE1QKWw+JcYUONlmfDESToQpaSpsETq7lAceXkQHmhKsFHVGZBkEz7wWCHeEEB2ntBp8tYwQ0OHMEpKDpBaZygQZcyDsIaFHJBBxEfP1zAiD7ilJK/
lpc_rms=-23.27
sample=Tuba_sustain_FF_B3.opus
</region>

<region>
hivel=127
key=B2
loop_end=174854
loop_start=75501
loop_xfade=16709
lovel=0
lpc=OgOTQ84lW8SRhVZEcN6bw2p7O0NDb1zD9JkpQqmPkEGsxqHAkGgkQklmI8K8iPBBHR+mwe02cUEebYbBqlMKwrX2a0IEY7i/jNCNwOAOFMHXHBHCmfROQr6VrcGh0EtA
lpc_rms=-24.39
sample=Tuba_sustain_FF_B2.opus
</region>

<region>
hivel=127
key=B1
loop_end=152681
loop_start=65927
loop_xfade=14590
lovel=0
lpc=jUQ+Q/vCGcT0HDNELUelw+GxQkJz6iPC2n8jQmgukcEiWBlB2SaeQLDWtD/Ps0jBRFW2wN/cmEHWbEe/liiPwaiGAUG/QtVA013gQPBXkcE57T3BQf0tQiePAcJVnPRA
lpc_rms=-27.15
sample=Tuba_sustain_FF_B1.opus
</region>

<region>
hivel=127
key=A3
loop_end=177060
loop_start=76453
loop_xfade=16920
lovel=0
lpc=G/psQ+OkF8TgLe9DGn1Jw0E0VUO7II7CNTmRwgVVG0LCMg7CvE5vwVs9BUJbusRAhzqZQM8BoUCB6oPBjOkKwUONN0FaFeg/iq0RQA00XUApm3XBjHyzP93sE0ENa0PA
lpc_rms=-22.61
sample=Tuba_sustain_FF_A3.opus
</region>

<region>
hivel=127
key=A2
loop_end=171172
loop_start=73911
loop_xfade=16358
lovel=0
lpc=FfOkQ9c0a8R2tGFEVknXw21gr0OZv4PDAieRQZ5OlUL8C07CYekYwhw5zUH/fqNCyghawuozIMG4++VAv7o5wnI+QkLd2sBBdpKzPv79KsK4xrHB+VKgQkn5esKAE5xB
lpc_rms=-22.99
sample=Tuba_sustain_FF_A2.opus
</region>

<region>
hivel=127
key=A1
loop_end=162804
loop_start=70297
loop_xfade=15558
lovel=0
lpc=YdhsQ4pJQMTNM15E58fVw84/LUMYuUTDij2cQq4SbkC5kbBC+LXzwtfsPEI617tBi7BvwibcTkJkbpI/34sewhrssUDMr0dCU+J5wUybW8IiegZCBmIEQktWLcIe6GJB
lpc_rms=-23.82
sample=Tuba_sustain_FF_A1.opus
</region>

<region>
hivel=127
key=A#3
loop_end=175521
loop_start=75789
loop_xfade=16773
lovel=0
lpc=0xFLQ22xCsT22gZER2iow4y6kUN7fBTDr5CFwE77hkGtyFvBXldKweWN50E5bHHBFnQcQYInxEDa7e7A1LKBwf6FpEFXiCzBUZd7QYsNI8H/KGjBrK3SQU8fs8F27hZB
lpc_rms=-23.15
sample=Tuba_sustain_FF_A#3.opus
</region>

<region>
hivel=127
key=A#2
loop_end=168591
loop_start=72796
loop_xfade=16111
lovel=0
lpc=ZJaRQzYiVMSIVFZEbaDmw/cJyEO/z6XDdrC5QoLj4sBUVnFB6r8swpM1JkHSoKpCuGlewiepI8HbYxJBDgE5wiizP0JSB+FBADjlwcY0+cGKrB9BTyCEQsF4l8ICSdBB
lpc_rms=-22.04
sample=Tuba_sustain_FF_A#2.opus
</region>

<region>
hivel=127
key=A#1
loop_end=167528
loop_start=72337
loop_xfade=16009
lovel=0
lpc=YO5NQwffGcT5fBpErDlww1TvAUPEFRfDcwpNQpZvLsJ1/ahCQcJCwnvoiEGF64XAfos1wbDwxEDzIvtAvcPLwBFqtMFRwDJC7p/HwG7aoMH5o0/BG/emQSNQoT/iJY/A
lpc_rms=-23.37
sample=Tuba_sustain_FF_A#1.opus
</region>
</group>